#!OML:ASF F:\VICON\USERDATA\INSTALL\Justin_Nancy\Justin_Nancy.ASF
:FULLY-SPECIFIED
:DEGREES
80
root -8.69224 16.8697 -11.7419 -0.957976 -3.34775 6.94676
lowerback 5.10365 -1.17833 -8.25572
upperback -0.850257 -2.0718 0.853366
thorax -3.43579 -0.856647 5.69406
lowerneck -16.7987 -2.65406 -9.95406
upperneck 21.0421 -2.29936 5.4473
head 9.61751 -1.26136 3.25595
rclavicle -9.85227e-015 1.19271e-014
rhumerus -38.1054 -13.7709 -77.0087
rradius 30.5199
rwrist 8.51004
rhand -13.0552 13.8202
rfingers 7.12502
rthumb 13.04 -15.7522
lclavicle -9.85227e-015 1.19271e-014
lhumerus -30.6398 4.05732 84.9236
lradius 34.5796
lwrist 2.65398
lhand -14.2553 23.3871
lfingers 7.12502
lthumb 11.8829 53.0299
rfemur -36.5331 -1.68566 10.8801
rtibia 38.5687
rfoot -3.6158 -13.9015
rtoes 2.06384
lfemur -1.0519 -5.91386 -37.3783
ltibia 29.6334
lfoot -20.9256 -3.56093
ltoes 12.0595
81
root -8.69043 16.8429 -11.494 -0.81073 -2.91803 7.0535
lowerback 4.87027 -1.34238 -8.52054
upperback -0.827217 -2.28247 0.914287
thorax -3.2349 -0.965988 5.91276
lowerneck -16.6158 -2.64598 -10.1746
upperneck 20.7883 -2.28478 5.62912
head 9.49793 -1.24959 3.35456
rclavicle 5.90142e-016 2.8625e-014
rhumerus -38.4306 -13.7 -76.8877
rradius 30.6081
rwrist 8.43595
rhand -13.0908 14.2618
rfingers 7.12502
rthumb 13.0057 -15.3128
lclavicle 5.90142e-016 2.8625e-014
lhumerus -30.3224 4.36283 84.6295
lradius 34.8728
lwrist 2.43183
lhand -14.518 22.4857
lfingers 7.12502
lthumb 11.6296 52.143
rfemur -36.5581 -1.37778 10.5087
rtibia 35.0559
rfoot -3.78697 -14.063
rtoes 2.03317
lfemur 0.348441 -5.91822 -37.6121
ltibia 28.5544
lfoot -20.851 -4.005
ltoes 13.0766
82
root -8.68925 16.8138 -11.2402 -0.78103 -2.38663 7.25593
lowerback 4.77216 -1.46667 -8.8853
upperback -0.807552 -2.46034 0.903904
thorax -3.11659 -1.05423 6.11455
lowerneck -16.3982 -2.69145 -10.1525
upperneck 20.6222 -2.3669 5.5996
head 9.40637 -1.28914 3.32677
rclavicle -3.42904e-014 -3.97569e-015
rhumerus -38.817 -13.6837 -76.7788
rradius 30.7571
rwrist 8.14129
rhand -13.0916 13.3223
rfingers 7.12502
rthumb 13.0049 -16.2523
lclavicle -3.42904e-014 -3.97569e-015
lhumerus -30.1027 4.32366 84.4125
lradius 35.2745
lwrist 2.28742
lhand -14.6767 22.6826
lfingers 7.12502
lthumb 11.4766 52.3485
rfemur -36.231 -1.15255 9.95925
rtibia 31.5292
rfoot -4.94595 -14.0067
rtoes 2.4176
lfemur 1.90158 -5.79722 -37.9175
ltibia 27.5261
lfoot -21.0566 -4.31122
ltoes 11.0758
83
root -8.68787 16.7929 -10.9916 -0.707779 -1.8433 7.38168
lowerback 4.89817 -1.61232 -9.14744
upperback -0.850566 -2.68497 0.906607
thorax -3.18395 -1.15628 6.28536
lowerneck -16.5685 -2.75451 -9.97133
upperneck 20.6928 -2.44314 5.41432
head 9.46493 -1.32989 3.22212
rclavicle 1.2921e-014 -7.95139e-015
rhumerus -39.2163 -13.4324 -76.7777
rradius 30.9616
rwrist 7.73912
rhand -12.8939 13.276
rfingers 7.12502
rthumb 13.1955 -16.2864
lclavicle 1.2921e-014 -7.95139e-015
lhumerus -29.832 4.43378 84.1232
lradius 35.7471
lwrist 2.55106
lhand -14.2329 24.0335
lfingers 7.12502
lthumb 11.9045 53.675
rfemur -35.8513 -0.65983 9.36642
rtibia 28.0896
rfoot -5.9152 -13.9211
rtoes -0.112336
lfemur 3.36648 -5.38739 -38.0527
ltibia 26.5826
lfoot -21.2817 -4.62409
ltoes 8.03079
84
root -8.68608 16.7766 -10.7457 -0.612423 -1.40495 7.22439
lowerback 4.92636 -1.71306 -9.1244
upperback -0.823184 -2.81679 0.986478
thorax -3.14498 -1.22472 6.365
lowerneck -16.8415 -2.83841 -9.95363
upperneck 20.7273 -2.53603 5.41364
head 9.53546 -1.36878 3.20668
rclavicle 4.00675e-015 2.14687e-014
rhumerus -39.6394 -13.3362 -76.7302
rradius 31.2717
rwrist 7.58282
rhand -12.8934 14.6728
rfingers 7.12502
rthumb 13.1959 -14.8896
lclavicle 4.00675e-015 2.14687e-014
lhumerus -29.3356 4.4484 83.917
lradius 36.1692
lwrist 3.1763
lhand -13.886 26.1224
lfingers 7.12502
lthumb 12.239 55.7443
rfemur -35.4497 0.132134 8.94414
rtibia 24.7336
rfoot -6.30619 -13.5616
rtoes -4.10983
lfemur 4.61724 -5.08899 -37.874
ltibia 25.8694
lfoot -21.4835 -5.01454
ltoes 7.03729
85
root -8.68475 16.7538 -10.4976 -0.546739 -0.897684 7.30657
lowerback 4.88617 -1.79776 -9.37314
upperback -0.819499 -2.94088 0.981929
thorax -3.08561 -1.28519 6.50588
lowerneck -16.739 -2.89345 -9.9547
upperneck 20.603 -2.63398 5.47118
head 9.48195 -1.4071 3.21228
rclavicle -6.31763e-015 -1.59028e-014
rhumerus -40.1252 -13.6315 -76.4659
rradius 31.2462
rwrist 7.71546
rhand -12.9657 15.1371
rfingers 7.12502
rthumb 13.1263 -14.4298
lclavicle -6.31763e-015 -1.59028e-014
lhumerus -29.0315 4.45072 83.7136
lradius 36.5411
lwrist 3.59781
lhand -13.8448 26.7512
lfingers 7.12502
lthumb 12.2788 56.3707
rfemur -34.8919 1.14582 8.03338
rtibia 21.4789
rfoot -6.41698 -12.9868
rtoes -5.37184
lfemur 5.73258 -4.96081 -37.9368
ltibia 25.4634
lfoot -21.6484 -5.65098
ltoes 7.3408
86
root -8.68322 16.7188 -10.251 -0.446205 -0.3374 7.28203
lowerback 4.79716 -1.90694 -9.4799
upperback -0.761283 -3.08037 0.994738
thorax -2.94313 -1.3624 6.58109
lowerneck -16.6989 -2.95663 -9.8462
upperneck 20.3411 -2.74412 5.45219
head 9.39034 -1.44798 3.16874
rclavicle -2.60532e-014 -9.54166e-015
rhumerus -40.3476 -14.0601 -76.1886
rradius 30.9034
rwrist 7.86143
rhand -12.9491 14.4795
rfingers 7.12502
rthumb 13.1422 -15.0864
lclavicle -2.60532e-014 -9.54166e-015
lhumerus -28.7972 4.42962 83.495
lradius 36.9236
lwrist 3.72065
lhand -14.1857 26.4235
lfingers 7.12502
lthumb 11.95 56.0624
rfemur -34.3511 2.37511 7.11657
rtibia 18.5221
rfoot -6.01104 -12.4772
rtoes -9.10813
lfemur 6.76308 -5.03714 -37.9003
ltibia 25.3145
lfoot -21.8336 -6.03827
ltoes 6.79306
87
root -8.67615 16.6746 -10.0065 -0.384525 0.182015 7.289
lowerback 4.81759 -1.99167 -9.52077
upperback -0.692904 -3.19459 0.991836
thorax -2.85998 -1.42561 6.60582
lowerneck -17.0481 -3.02633 -9.76027
upperneck 20.3851 -2.82464 5.43555
head 9.4753 -1.47645 3.13752
rclavicle -2.01269e-014 -1.51076e-014
rhumerus -40.4361 -14.3715 -75.9664
rradius 30.6081
rwrist 7.90309
rhand -13.149 13.9425
rfingers 7.12502
rthumb 12.9495 -15.6357
lclavicle -2.01269e-014 -1.51076e-014
lhumerus -28.5336 4.45082 83.3337
lradius 37.0695
lwrist 3.52673
lhand -14.4887 26.2829
lfingers 7.12502
lthumb 11.6578 55.9386
rfemur -33.9733 3.42925 6.24005
rtibia 16.2854
rfoot -6.12445 -11.6299
rtoes -11.3306
lfemur 7.68582 -5.41298 -37.9816
ltibia 25.2783
lfoot -21.531 -6.63331
ltoes 8.51597
88
root -8.66811 16.6237 -9.75323 -0.389147 0.693475 7.25327
lowerback 4.7995 -2.10381 -9.57963
upperback -0.695653 -3.34386 1.05744
thorax -2.81833 -1.50082 6.71514
lowerneck -16.8678 -3.03701 -9.87062
upperneck 20.2966 -2.85316 5.55125
head 9.41688 -1.48647 3.19204
rclavicle -4.65902e-015 -3.18055e-014
rhumerus -40.719 -14.3596 -75.7131
rradius 30.494
rwrist 7.85254
rhand -12.8872 13.6035
rfingers 7.12502
rthumb 13.2019 -15.9585
lclavicle -4.65902e-015 -3.18055e-014
lhumerus -28.4402 4.61463 83.208
lradius 37.1241
lwrist 3.545
lhand -14.7797 26.3695
lfingers 7.12502
lthumb 11.3773 56.0408
rfemur -33.6614 4.03732 5.67759
rtibia 14.9273
rfoot -6.7789 -10.441
rtoes -11.3246
lfemur 8.61727 -5.8544 -38.0648
ltibia 25.4127
lfoot -21.3039 -7.10919
ltoes 9.34256
89
root -8.65636 16.5825 -9.49335 -0.532642 1.04962 7.06771
lowerback 4.81803 -2.18028 -9.47135
upperback -0.709274 -3.44036 1.11046
thorax -2.8278 -1.54944 6.71629
lowerneck -16.3572 -3.00747 -9.74409
upperneck 20.074 -2.87759 5.4812
head 9.24419 -1.49927 3.14138
rclavicle -1.94623e-014 1.19271e-014
rhumerus -41.1528 -14.1256 -75.5675
rradius 30.346
rwrist 7.60524
rhand -12.615 13.434
rfingers 7.12502
rthumb 13.4643 -16.1108
lclavicle -1.94623e-014 1.19271e-014
lhumerus -28.5678 4.63954 82.9664
lradius 37.3405
lwrist 3.86816
lhand -15.0003 27.2226
lfingers 7.12502
lthumb 11.1644 56.9056
rfemur -33.4038 4.18566 5.72007
rtibia 14.4473
rfoot -7.02786 -8.72013
rtoes -13.355
lfemur 9.6072 -6.12822 -38.0594
ltibia 25.7619
lfoot -21.2816 -7.25719
ltoes 8.17532
90
root -8.64003 16.5432 -9.24401 -0.64761 1.43203 6.97873
lowerback 5.06625 -2.26756 -9.45131
upperback -0.773217 -3.58091 1.22042
thorax -3.00336 -1.60729 6.84513
lowerneck -16.2186 -2.9729 -9.79925
upperneck 20.0456 -2.80593 5.38374
head 9.20293 -1.48203 3.12574
rclavicle -3.0265e-014 1.74931e-014
rhumerus -41.3181 -13.9096 -75.2399
rradius 29.8461
rwrist 7.83202
rhand -12.7469 13.731
rfingers 7.12502
rthumb 13.3372 -15.8222
lclavicle -3.0265e-014 1.74931e-014
lhumerus -28.7292 4.83911 82.8584
lradius 37.4823
lwrist 4.30877
lhand -15.285 27.5333
lfingers 7.12502
lthumb 10.8899 57.2309
rfemur -33.4614 3.86987 5.87054
rtibia 14.8525
rfoot -7.10916 -6.49194
rtoes -15.029
lfemur 10.367 -6.46837 -38.196
ltibia 26.3175
lfoot -20.9931 -7.49938
ltoes 7.41636
91
root -8.62463 16.5076 -8.99597 -0.722779 1.76038 6.72435
lowerback 5.19115 -2.37142 -9.36299
upperback -0.778436 -3.71927 1.46024
thorax -3.04279 -1.67406 7.06474
lowerneck -16.2564 -2.92854 -10.0337
upperneck 20.1401 -2.67152 5.34612
head 9.23539 -1.44239 3.17021
rclavicle 4.66336e-014 1.11319e-014
rhumerus -41.2097 -13.8264 -74.7696
rradius 29.1141
rwrist 8.47701
rhand -13.0154 14.7344
rfingers 7.12502
rthumb 13.0784 -14.8355
lclavicle 4.66336e-014 1.11319e-014
lhumerus -28.8499 5.20562 82.8776
lradius 37.6361
lwrist 4.71905
lhand -15.8298 27.0663
lfingers 7.12502
lthumb 10.3643 56.7909
rfemur -33.7019 3.44149 6.28522
rtibia 15.9272
rfoot -6.74718 -3.75483
rtoes -15.4742
lfemur 10.8784 -6.74015 -38.1476
ltibia 27.0973
lfoot -20.5551 -7.79965
ltoes 6.34407
92
root -8.60688 16.4718 -8.73369 -0.819145 1.9783 6.41311
lowerback 5.01203 -2.38118 -9.11055
upperback -0.64569 -3.68866 1.59907
thorax -2.81329 -1.67982 7.05163
lowerneck -16.0839 -2.93971 -9.9882
upperneck 19.871 -2.67918 5.20947
head 9.10925 -1.45465 3.1103
rclavicle -2.36243e-014 1.19271e-014
rhumerus -41.1584 -14.0802 -74.3623
rradius 28.6048
rwrist 8.99806
rhand -13.1322 15.6733
rfingers 7.12502
rthumb 12.9657 -13.9038
lclavicle -2.36243e-014 1.19271e-014
lhumerus -28.8153 5.41252 82.8406
lradius 37.8377
lwrist 4.71559
lhand -16.4423 26.4394
lfingers 7.12502
lthumb 9.77344 56.1926
rfemur -33.96 2.95845 6.80059
rtibia 17.4351
rfoot -5.87199 -0.656686
rtoes -13.6927
lfemur 11.3224 -6.98798 -38.1065
ltibia 28.1096
lfoot -19.713 -8.19024
ltoes 7.08306
93
root -8.59546 16.4293 -8.46906 -1.06462 2.34925 6.04516
lowerback 4.89819 -2.38669 -8.83886
upperback -0.37636 -3.65505 1.70117
thorax -2.48167 -1.69412 6.9872
lowerneck -16.3132 -2.98105 -9.97492
upperneck 19.9236 -2.73573 5.29533
head 9.17479 -1.4685 3.13087
rclavicle -4.96589e-014 -2.8625e-014
rhumerus -41.0114 -14.3518 -74.131
rradius 28.3361
rwrist 9.07989
rhand -12.8646 15.3976
rfingers 7.12502
rthumb 13.2237 -14.163
lclavicle -4.96589e-014 -2.8625e-014
lhumerus -28.4831 5.43797 82.7853
lradius 37.7984
lwrist 4.79545
lhand -16.4851 26.4991
lfingers 7.12502
lthumb 9.73213 56.2543
rfemur -33.9534 2.53688 7.35296
rtibia 19.1536
rfoot -4.65884 2.29164
rtoes -13.089
lfemur 11.9926 -7.09393 -37.9439
ltibia 29.2322
lfoot -18.8119 -8.22393
ltoes 6.91037
94
root -8.58837 16.3883 -8.21577 -1.21551 2.5925 5.62817
lowerback 4.90334 -2.39014 -8.5867
upperback -0.245089 -3.63655 1.85081
thorax -2.3554 -1.69896 6.99739
lowerneck -16.5419 -2.97618 -10.0394
upperneck 20.0445 -2.72153 5.43341
head 9.25992 -1.45066 3.19302
rclavicle 4.58571e-014 -2.8625e-014
rhumerus -40.8083 -14.2567 -74.0591
rradius 28.0164
rwrist 9.18167
rhand -12.8219 14.1007
rfingers 7.12502
rthumb 13.2649 -15.4572
lclavicle 4.58571e-014 -2.8625e-014
lhumerus -28.3813 5.52221 82.7046
lradius 37.5752
lwrist 5.20006
lhand -16.2258 27.8032
lfingers 7.12502
lthumb 9.98232 57.5465
rfemur -34.1756 2.87598 7.62247
rtibia 21.0809
rfoot -2.81531 4.7914
rtoes -15.4262
lfemur 12.5048 -7.07218 -37.662
ltibia 30.3995
lfoot -18.042 -8.00709
ltoes 5.08099
